<svg width="83" height="28" viewBox="0 0 83 28" fill="none" xmlns="http://www.w3.org/2000/svg">
<path d="M68.1113 27.3C67.57 27.3 67.122 27.1693 66.7673 26.908C66.394 26.6653 66.1606 26.2827 66.0673 25.76C65.9926 25.2187 66.198 24.6493 66.6833 24.052C67.1686 23.4547 67.7753 22.8667 68.5033 22.288C69.082 21.8213 69.6886 21.3827 70.3233 20.972C70.958 20.58 71.546 20.216 72.0873 19.88C72.6473 19.5627 73.0953 19.3107 73.4313 19.124C74.1406 18.6947 74.8686 18.2467 75.6153 17.78C76.362 17.332 77.0806 16.8933 77.7713 16.464C77.9953 15.792 78.1353 15.12 78.1913 14.448C78.266 13.7573 78.294 13.0853 78.2753 12.432C78.07 12.7493 77.7713 13.1693 77.3793 13.692C77.006 14.2147 76.558 14.7373 76.0353 15.26C75.5313 15.7827 74.9806 16.2307 74.3833 16.604C73.786 16.9587 73.17 17.136 72.5353 17.136C71.7326 17.136 71.182 16.9027 70.8833 16.436C70.5846 15.9693 70.4353 15.4187 70.4353 14.784C70.4353 14.224 70.51 13.6547 70.6593 13.076C70.8273 12.4973 71.0046 12.0307 71.1913 11.676C71.5646 10.9107 72.0313 10.164 72.5913 9.436C73.17 8.708 73.814 8.11067 74.5233 7.644C75.2513 7.17733 75.9886 6.944 76.7353 6.944C77.2766 6.944 77.6686 7.10267 77.9113 7.42C78.1726 7.73733 78.3033 8.10133 78.3033 8.512C78.3033 8.64267 78.266 8.848 78.1913 9.128C78.1166 9.408 78.014 9.69733 77.8833 9.996C77.7713 10.2947 77.6313 10.556 77.4633 10.78C77.2953 10.9853 77.1086 11.088 76.9033 11.088C76.7726 11.088 76.6606 11.0507 76.5673 10.976C76.474 10.8827 76.4273 10.7893 76.4273 10.696C76.4273 10.64 76.502 10.5093 76.6513 10.304C76.8006 10.0987 76.95 9.84667 77.0993 9.548C77.2486 9.24933 77.3233 8.932 77.3233 8.596C77.3233 8.39067 77.2673 8.204 77.1553 8.036C77.062 7.868 76.8753 7.784 76.5953 7.784C76.0166 7.784 75.438 7.98933 74.8593 8.4C74.2993 8.81067 73.786 9.324 73.3193 9.94C72.8526 10.556 72.4606 11.1907 72.1433 11.844C72.0126 12.124 71.8633 12.544 71.6953 13.104C71.5273 13.664 71.4433 14.2053 71.4433 14.728C71.4433 15.176 71.5366 15.5587 71.7233 15.876C71.91 16.1747 72.2366 16.324 72.7033 16.324C73.114 16.324 73.5526 16.1653 74.0193 15.848C74.5046 15.5307 74.99 15.1293 75.4753 14.644C75.9606 14.14 76.3993 13.6267 76.7913 13.104C77.202 12.5627 77.5286 12.0773 77.7713 11.648C78.0326 11.2187 78.1726 10.9107 78.1913 10.724C78.21 10.6307 78.266 10.528 78.3593 10.416C78.4526 10.304 78.5646 10.248 78.6953 10.248C78.8446 10.248 78.9473 10.2947 79.0033 10.388C79.0593 10.4813 79.0966 10.5747 79.1153 10.668C79.246 11.172 79.3113 11.76 79.3113 12.432C79.3113 12.9733 79.274 13.524 79.1993 14.084C79.1433 14.644 79.078 15.148 79.0033 15.596C79.638 15.0733 80.2166 14.448 80.7393 13.72C81.2806 12.9733 81.766 12.2733 82.1953 11.62C82.2886 11.4707 82.4006 11.396 82.5313 11.396C82.6246 11.396 82.7086 11.4333 82.7833 11.508C82.8766 11.5827 82.9233 11.676 82.9233 11.788C82.9233 11.8627 82.8953 11.956 82.8393 12.068C82.2606 13.0013 81.6446 13.8973 80.9913 14.756C80.3566 15.596 79.5446 16.3427 78.5553 16.996C78.0326 18.4893 77.314 19.8987 76.3993 21.224C75.5033 22.568 74.5046 23.7253 73.4033 24.696C72.3206 25.6853 71.2286 26.404 70.1273 26.852C69.7726 27.0013 69.4273 27.1133 69.0913 27.188C68.7366 27.2627 68.41 27.3 68.1113 27.3ZM68.1113 26.6C68.3353 26.6 68.578 26.5627 68.8393 26.488C69.1006 26.4133 69.3713 26.32 69.6513 26.208C70.7713 25.704 71.7886 25.0413 72.7033 24.22C73.6366 23.4173 74.4486 22.5213 75.1393 21.532C75.8486 20.5427 76.418 19.5533 76.8473 18.564C76.8846 18.452 76.9313 18.34 76.9873 18.228C77.0433 18.116 77.0993 18.004 77.1553 17.892C76.614 18.1907 76.0913 18.508 75.5873 18.844C75.0833 19.1987 74.5606 19.5253 74.0193 19.824C73.7206 19.992 73.282 20.244 72.7033 20.58C72.1246 20.916 71.4993 21.2893 70.8273 21.7C70.1553 22.1293 69.53 22.5773 68.9513 23.044C68.3913 23.4733 67.9246 23.9027 67.5513 24.332C67.178 24.7613 66.9913 25.1627 66.9913 25.536C66.9913 25.9093 67.1033 26.18 67.3273 26.348C67.5326 26.516 67.794 26.6 68.1113 26.6Z" fill="#141414"/>
<path d="M57.165 16.94C57.0717 16.94 56.969 16.912 56.857 16.856C56.745 16.8 56.689 16.7253 56.689 16.632C56.689 16.4826 56.717 16.352 56.773 16.24C56.9784 15.792 57.2397 15.2413 57.557 14.588C57.893 13.9347 58.2197 13.2627 58.537 12.572C58.873 11.8626 59.153 11.2 59.377 10.584C59.6197 9.96798 59.741 9.47332 59.741 9.09998C59.741 8.98798 59.713 8.88532 59.657 8.79198C59.6197 8.67998 59.5264 8.62398 59.377 8.62398C59.153 8.62398 58.929 8.71732 58.705 8.90398C58.4997 9.09065 58.313 9.30532 58.145 9.54798C57.977 9.77198 57.837 9.95865 57.725 10.108C57.3517 10.612 57.0344 11.0787 56.773 11.508C56.5117 11.9187 56.241 12.3293 55.961 12.74C55.6997 13.132 55.373 13.5707 54.981 14.056C54.925 14.1307 54.8597 14.196 54.785 14.252C54.729 14.2893 54.645 14.308 54.533 14.308C54.421 14.308 54.3277 14.252 54.253 14.14C54.1597 14.028 54.141 13.9253 54.197 13.832C54.6077 13.1787 55.009 12.5627 55.401 11.984C55.793 11.3867 56.1384 10.8733 56.437 10.444C56.7357 10.0146 56.941 9.72532 57.053 9.57598C57.3704 9.16532 57.697 8.77332 58.033 8.39998C58.3877 8.02665 58.8637 7.83998 59.461 7.83998C59.965 7.83998 60.3104 7.97998 60.497 8.25998C60.7024 8.53998 60.805 8.86665 60.805 9.23998C60.805 9.91198 60.525 10.78 59.965 11.844C60.6557 11.116 61.393 10.4533 62.177 9.85598C62.9797 9.25865 63.7264 8.76398 64.417 8.37198C65.1077 7.96132 65.6304 7.70932 65.985 7.61598C66.153 7.55998 66.321 7.51332 66.489 7.47598C66.6757 7.43865 66.8437 7.41998 66.993 7.41998C67.1797 7.41998 67.329 7.46665 67.441 7.55998C67.5717 7.65332 67.637 7.83065 67.637 8.09198C67.637 8.35332 67.469 8.72665 67.133 9.21198C66.797 9.67865 66.3864 10.22 65.901 10.836C65.4344 11.4333 64.9864 12.04 64.557 12.656C64.1277 13.272 63.8197 13.8506 63.633 14.392C63.577 14.5226 63.5397 14.6533 63.521 14.784C63.5024 14.896 63.493 14.9987 63.493 15.092C63.493 15.596 63.7264 15.848 64.193 15.848C64.4917 15.848 64.865 15.6987 65.313 15.4C65.5744 15.232 65.8264 15.0453 66.069 14.84C66.3304 14.616 66.5264 14.42 66.657 14.252C66.937 13.9347 67.161 13.664 67.329 13.44C67.5157 13.216 67.693 12.9733 67.861 12.712C68.0477 12.432 68.281 12.0867 68.561 11.676C68.617 11.5826 68.673 11.5173 68.729 11.48C68.785 11.4427 68.8784 11.424 69.009 11.424C69.2144 11.424 69.317 11.5546 69.317 11.816C69.317 11.928 69.233 12.124 69.065 12.404C68.897 12.6653 68.6917 12.964 68.449 13.3C68.225 13.6173 68.001 13.916 67.777 14.196C67.5717 14.4573 67.4224 14.644 67.329 14.756C67.1237 14.9987 66.8624 15.2507 66.545 15.512C66.2464 15.7733 65.9384 15.9973 65.621 16.184C65.3224 16.352 65.0144 16.4733 64.697 16.548C64.3797 16.6226 64.0717 16.66 63.773 16.66C63.2877 16.66 62.933 16.52 62.709 16.24C62.5037 15.96 62.401 15.6613 62.401 15.344C62.401 14.8587 62.5597 14.308 62.877 13.692C63.213 13.0573 63.605 12.432 64.053 11.816C64.5197 11.1813 64.949 10.612 65.341 10.108C65.7517 9.60398 66.0317 9.23998 66.181 9.01598C66.2184 8.95998 66.2464 8.91332 66.265 8.87598C66.2837 8.81998 66.293 8.77332 66.293 8.73598C66.293 8.58665 66.181 8.51198 65.957 8.51198C65.845 8.51198 65.7144 8.53998 65.565 8.59598C64.7997 8.91332 63.997 9.37998 63.157 9.99598C62.3357 10.612 61.5704 11.284 60.861 12.012C60.1704 12.7213 59.6197 13.3933 59.209 14.028L58.089 15.792C57.9957 15.9413 57.9117 16.1 57.837 16.268C57.7624 16.4173 57.6784 16.5667 57.585 16.716C57.473 16.8653 57.333 16.94 57.165 16.94Z" fill="#141414"/>
<path d="M51.3129 5.432C51.2195 5.432 51.1169 5.41333 51.0049 5.376C50.8929 5.33867 50.8369 5.25467 50.8369 5.124C50.8369 5.03067 50.8649 4.94666 50.9209 4.872C51.0702 4.592 51.3409 4.34933 51.7329 4.144C52.1435 3.93866 52.4515 3.836 52.6569 3.836C52.7502 3.836 52.8529 3.864 52.9649 3.92C53.0769 3.95733 53.1329 4.04133 53.1329 4.172C53.1329 4.48933 52.9369 4.77866 52.5449 5.04C52.1715 5.30133 51.7609 5.432 51.3129 5.432ZM48.1769 16.884C47.5422 16.884 47.0382 16.7067 46.6649 16.352C46.2915 15.9973 46.1049 15.5027 46.1049 14.868C46.1049 14.4947 46.1422 14.1307 46.2169 13.776C46.2915 13.4027 46.3942 13.0387 46.5249 12.684C46.5995 12.4787 46.7489 12.1427 46.9729 11.676C47.2155 11.1907 47.4955 10.6867 47.8129 10.164C48.1302 9.62267 48.4382 9.16533 48.7369 8.792C49.0355 8.41866 49.2969 8.232 49.5209 8.232C49.6142 8.232 49.7355 8.26933 49.8849 8.344C50.0529 8.4 50.1369 8.49333 50.1369 8.624C50.1369 8.69866 50.0995 8.792 50.0249 8.904C49.5955 9.38933 49.1475 9.968 48.6809 10.64C48.2142 11.312 47.8222 12.012 47.5049 12.74C47.1875 13.468 47.0289 14.168 47.0289 14.84C47.0289 15.6987 47.4395 16.128 48.2609 16.128C48.8209 16.128 49.3809 15.8573 49.9409 15.316C50.5195 14.7747 51.1542 14.0467 51.8449 13.132C52.0502 12.8707 52.2275 12.6187 52.3769 12.376C52.5449 12.1147 52.6942 11.8907 52.8249 11.704C52.9555 11.5733 53.0955 11.508 53.2449 11.508C53.4689 11.508 53.5809 11.592 53.5809 11.76C53.5809 11.9653 53.4315 12.292 53.1329 12.74C52.8342 13.188 52.4982 13.6547 52.1249 14.14C51.3969 15.036 50.7622 15.7173 50.2209 16.184C49.6795 16.6507 48.9982 16.884 48.1769 16.884Z" fill="#141414"/>
<path d="M34.9431 17.276C34.3271 17.276 33.8978 17.0707 33.6551 16.66C33.4125 16.2493 33.2911 15.8107 33.2911 15.344C33.2911 14.8027 33.4031 14.1867 33.6271 13.496C33.8698 12.8053 34.1965 12.1053 34.6071 11.396C35.0178 10.6867 35.4938 10.0333 36.0351 9.436C36.5765 8.83867 37.1645 8.35334 37.7991 7.98C38.4525 7.60667 39.1151 7.42 39.7871 7.42C40.1978 7.42 40.5245 7.49467 40.7671 7.644C41.0285 7.79333 41.2711 7.99867 41.4951 8.26C41.8871 7.62533 42.3258 6.86 42.8111 5.964C43.2965 5.04933 43.7911 4.13467 44.2951 3.22C44.7991 2.28667 45.2565 1.484 45.6671 0.812001C45.8538 0.494668 46.0498 0.280001 46.2551 0.168001C46.4605 0.0560004 46.6565 0 46.8431 0C46.9925 0 47.1138 0.0373336 47.2071 0.112C47.3005 0.186667 47.3471 0.345334 47.3471 0.588001C47.3471 0.718668 47.2258 0.998669 46.9831 1.428C46.7591 1.83867 46.4605 2.33333 46.0871 2.912C45.7138 3.49067 45.3125 4.09734 44.8831 4.732C44.4538 5.36667 44.0431 5.97333 43.6511 6.552C43.2778 7.13067 42.9698 7.616 42.7271 8.008C42.5405 8.30667 42.2885 8.764 41.9711 9.38C41.6538 9.97734 41.3271 10.64 40.9911 11.368C40.6551 12.096 40.3751 12.8053 40.1511 13.496C39.9271 14.1867 39.8151 14.756 39.8151 15.204C39.8151 15.4467 39.8618 15.652 39.9551 15.82C40.0485 15.988 40.1885 16.072 40.3751 16.072C40.5805 16.072 40.7951 15.988 41.0191 15.82C41.2431 15.652 41.4485 15.4653 41.6351 15.26C41.8218 15.0547 41.9525 14.896 42.0271 14.784C42.1018 14.6907 42.2791 14.448 42.5591 14.056C42.8391 13.664 43.1378 13.244 43.4551 12.796C43.7911 12.3293 44.0431 11.9653 44.2111 11.704C44.3045 11.5547 44.4351 11.48 44.6031 11.48C44.8458 11.48 44.9671 11.62 44.9671 11.9C44.9671 11.9373 44.9298 12.0213 44.8551 12.152C44.7805 12.264 44.6871 12.4133 44.5751 12.6C43.6791 13.9813 42.9138 15.036 42.2791 15.764C41.6445 16.492 40.9725 16.856 40.2631 16.856C40.2071 16.856 40.1418 16.856 40.0671 16.856C40.0111 16.856 39.9551 16.8467 39.8991 16.828C39.5258 16.7533 39.2645 16.548 39.1151 16.212C38.9845 15.876 38.9191 15.5307 38.9191 15.176C38.9191 15.008 38.9285 14.8307 38.9471 14.644C38.9845 14.4387 39.0405 14.168 39.1151 13.832C38.7605 14.2613 38.3685 14.728 37.9391 15.232C37.5098 15.7173 37.0805 16.1467 36.6511 16.52C36.2405 16.8933 35.8765 17.1173 35.5591 17.192C35.3725 17.248 35.1671 17.276 34.9431 17.276ZM35.0551 16.408C35.3351 16.408 35.6618 16.268 36.0351 15.988C36.4271 15.6893 36.8191 15.316 37.2111 14.868C37.6218 14.42 38.0045 13.944 38.3591 13.44C38.7325 12.936 39.0498 12.4787 39.3111 12.068C39.5911 11.6387 39.7871 11.312 39.8991 11.088L40.9631 8.988C40.8138 8.78267 40.6458 8.60534 40.4591 8.456C40.2911 8.30667 40.0578 8.232 39.7591 8.232C39.1805 8.232 38.6205 8.40933 38.0791 8.764C37.5378 9.1 37.0338 9.548 36.5671 10.108C36.1191 10.6493 35.7271 11.2467 35.3911 11.9C35.0551 12.5347 34.7938 13.16 34.6071 13.776C34.4205 14.3733 34.3271 14.896 34.3271 15.344C34.3271 15.5493 34.3645 15.7827 34.4391 16.044C34.5325 16.2867 34.7378 16.408 35.0551 16.408Z" fill="#141414"/>
<path d="M22.3534 16.968C21.7374 16.968 21.308 16.8093 21.0654 16.492C20.8414 16.156 20.7294 15.7546 20.7294 15.288C20.7294 14.84 20.804 14.3733 20.9534 13.888C21.1027 13.4027 21.2614 12.9547 21.4294 12.544C21.616 12.1147 21.7654 11.7973 21.8774 11.592C22.2134 11.0133 22.5867 10.4533 22.9974 9.91198C23.4267 9.37065 23.884 8.89465 24.3694 8.48398C24.8547 8.05465 25.3494 7.72798 25.8534 7.50398C26.376 7.26132 26.8987 7.13998 27.4214 7.13998C28.3174 7.13998 28.952 7.38265 29.3254 7.86798C29.6987 8.33465 29.8854 8.83865 29.8854 9.37998C29.8854 9.56665 29.8574 9.76265 29.8014 9.96798C29.7267 10.248 29.6334 10.4907 29.5214 10.696C29.428 10.9013 29.3067 11.004 29.1574 11.004C29.0267 11.004 28.9054 10.9387 28.7934 10.808C28.6814 10.6773 28.644 10.5466 28.6814 10.416C28.7187 10.2853 28.7654 10.1546 28.8214 10.024C28.896 9.89332 28.9427 9.76265 28.9614 9.63198C28.98 9.53865 28.9894 9.45465 28.9894 9.37998C29.008 9.30532 29.0174 9.23065 29.0174 9.15598C29.0174 8.65198 28.8494 8.30665 28.5134 8.11998C28.196 7.91465 27.8507 7.81198 27.4774 7.81198C27.048 7.81198 26.6 7.93332 26.1334 8.17598C25.6854 8.41865 25.2934 8.69865 24.9574 9.01598C24.5467 9.42665 24.136 9.90265 23.7254 10.444C23.3147 10.9853 22.96 11.536 22.6614 12.096C22.624 12.1893 22.5214 12.4133 22.3534 12.768C22.204 13.1226 22.0547 13.524 21.9054 13.972C21.7747 14.4013 21.7094 14.8027 21.7094 15.176C21.7094 15.4373 21.7654 15.6613 21.8774 15.848C22.008 16.0347 22.2227 16.128 22.5214 16.128C22.8387 16.128 23.2027 15.9786 23.6134 15.68C24.0427 15.3813 24.472 15.0173 24.9014 14.588C25.3494 14.14 25.7507 13.7107 26.1054 13.3C26.46 12.8893 26.7214 12.572 26.8894 12.348C27.0014 12.1987 27.104 12.04 27.1974 11.872C27.3094 11.6853 27.4214 11.5173 27.5334 11.368C27.5894 11.2933 27.7014 11.256 27.8694 11.256C28.0187 11.256 28.168 11.3026 28.3174 11.396C28.4854 11.4706 28.5507 11.5826 28.5134 11.732C28.4387 11.8626 28.2987 12.152 28.0934 12.6C27.9067 13.0293 27.7294 13.5053 27.5614 14.028C27.3934 14.532 27.3094 14.98 27.3094 15.372C27.3094 15.8573 27.4587 16.1373 27.7574 16.212C27.9627 16.2493 28.1774 16.1747 28.4014 15.988C28.644 15.8013 28.8587 15.5867 29.0454 15.344C29.2507 15.1013 29.4 14.924 29.4934 14.812C29.8854 14.2893 30.2494 13.7573 30.5854 13.216C30.94 12.656 31.2947 12.1333 31.6494 11.648C31.7614 11.4987 31.892 11.424 32.0414 11.424C32.3027 11.424 32.4334 11.564 32.4334 11.844C32.4334 11.9373 32.312 12.18 32.0694 12.572C31.8267 12.9453 31.528 13.3747 31.1734 13.86C30.8374 14.3453 30.52 14.784 30.2214 15.176C29.9227 15.568 29.5867 15.9507 29.2134 16.324C28.84 16.6973 28.364 16.884 27.7854 16.884C27.244 16.884 26.8707 16.7626 26.6654 16.52C26.4787 16.2773 26.3854 16.0066 26.3854 15.708C26.3854 15.4466 26.4134 15.176 26.4694 14.896C26.5254 14.5973 26.5814 14.3453 26.6374 14.14L26.5254 14.056C26.3574 14.2613 26.1054 14.5226 25.7694 14.84C25.4334 15.1573 25.06 15.484 24.6494 15.82C24.2387 16.1373 23.828 16.408 23.4174 16.632C23.0254 16.856 22.6707 16.968 22.3534 16.968Z" fill="#141414"/>
<path d="M11.0471 17.5C10.5431 17.5 10.1418 17.3693 9.8431 17.108C9.54443 16.8467 9.32043 16.5293 9.1711 16.156C9.04043 15.764 8.9751 15.4 8.9751 15.064C8.9751 14.616 9.0591 14.1213 9.2271 13.58C9.3951 13.02 9.54443 12.6373 9.6751 12.432C9.6751 12.376 9.66576 12.32 9.6471 12.264C9.6471 12.1893 9.6471 12.124 9.6471 12.068C9.6471 11.564 9.72176 11.0413 9.8711 10.5C10.0391 9.86533 10.3378 9.28667 10.7671 8.764C11.1964 8.22267 11.7284 7.784 12.3631 7.448C13.0164 7.112 13.7258 6.944 14.4911 6.944C15.3871 6.944 16.0778 7.18667 16.5631 7.672C17.0484 8.13867 17.2911 8.75467 17.2911 9.52C17.2911 10.584 17.0951 11.4987 16.7031 12.264C16.3298 13.0293 15.9284 13.7667 15.4991 14.476C15.4244 14.6253 15.3591 14.7467 15.3031 14.84C15.2471 14.9333 15.3031 14.98 15.4711 14.98C16.0124 14.98 16.5444 14.756 17.0671 14.308C17.5898 13.86 18.2524 13.0107 19.0551 11.76C19.1111 11.6667 19.1671 11.592 19.2231 11.536C19.2791 11.48 19.3631 11.452 19.4751 11.452H19.5311C19.7364 11.452 19.8578 11.5733 19.8951 11.816C19.8951 11.872 19.8764 11.9373 19.8391 12.012C19.3724 12.8333 18.8964 13.5427 18.4111 14.14C17.9444 14.7373 17.3844 15.1947 16.7311 15.512C16.0778 15.8107 15.2564 15.9693 14.2671 15.988C13.8751 16.3613 13.3898 16.7067 12.8111 17.024C12.2511 17.3413 11.6631 17.5 11.0471 17.5ZM13.7351 14.924H14.0151C14.4071 14.4573 14.7804 13.9253 15.1351 13.328C15.5084 12.7307 15.8071 12.1147 16.0311 11.48C16.2551 10.8267 16.3671 10.2107 16.3671 9.632C16.3671 9.09067 16.2271 8.63333 15.9471 8.26C15.6671 7.868 15.1818 7.672 14.4911 7.672C14.0244 7.672 13.5671 7.77467 13.1191 7.98C12.6898 8.16667 12.3164 8.4 11.9991 8.68L12.0831 8.792C12.1204 8.77333 12.1764 8.764 12.2511 8.764C12.3631 8.764 12.4658 8.81067 12.5591 8.904C12.6524 8.97867 12.6991 9.06267 12.6991 9.156C12.6991 9.212 12.6898 9.25867 12.6711 9.296C12.6524 9.33333 12.6244 9.37067 12.5871 9.408C12.2698 9.87467 11.9618 10.3133 11.6631 10.724C11.3644 11.1347 11.0844 11.6013 10.8231 12.124C10.7671 12.2547 10.7018 12.3853 10.6271 12.516C10.7764 13.2067 11.1218 13.7853 11.6631 14.252C12.2231 14.7 12.9138 14.924 13.7351 14.924ZM11.2151 16.716C11.5884 16.716 11.9618 16.604 12.3351 16.38C12.7084 16.1373 13.0258 15.9133 13.2871 15.708C11.8684 15.5587 10.8231 14.9333 10.1511 13.832C10.1324 13.9627 10.0951 14.1587 10.0391 14.42C9.9831 14.6813 9.9551 14.9427 9.9551 15.204C9.9551 15.5773 10.0391 15.9227 10.2071 16.24C10.3751 16.5573 10.7111 16.716 11.2151 16.716Z" fill="#141414"/>
<path d="M1.96 16.884C1.21333 16.884 0.7 16.66 0.42 16.212C0.14 15.764 0 15.2227 0 14.588C0 13.8787 0.112 13.0667 0.336 12.152C0.578667 11.2373 0.886667 10.2853 1.26 9.296C1.652 8.30667 2.09067 7.336 2.576 6.384C3.06133 5.432 3.556 4.564 4.06 3.78C4.564 2.996 5.04 2.352 5.488 1.848C5.88 1.41867 6.25333 1.092 6.608 0.868C6.98133 0.625333 7.37333 0.429333 7.784 0.280001C8.064 0.168 8.344 0.112 8.624 0.112C8.99733 0.112 9.31467 0.205334 9.576 0.392001C9.856 0.578668 9.996 0.886668 9.996 1.316C9.996 1.72667 9.84667 2.20267 9.548 2.744C9.24933 3.26667 8.876 3.79867 8.428 4.34C7.98 4.88133 7.52267 5.38533 7.056 5.852C6.58933 6.31867 6.17867 6.70133 5.824 7C5.04 7.65333 4.284 8.26934 3.556 8.848C2.828 9.408 2.22133 9.97733 1.736 10.556C1.47467 11.284 1.26933 11.9933 1.12 12.684C0.970667 13.356 0.896 13.9627 0.896 14.504C0.896 14.9893 0.98 15.3907 1.148 15.708C1.33467 16.0253 1.652 16.184 2.1 16.184C2.548 16.184 2.97733 16.044 3.388 15.764C3.79867 15.4653 4.19067 15.092 4.564 14.644C4.956 14.196 5.31067 13.748 5.628 13.3C5.852 12.9827 6.06667 12.6747 6.272 12.376C6.496 12.0587 6.67333 11.8067 6.804 11.62C6.87867 11.4893 7 11.424 7.168 11.424C7.37333 11.424 7.476 11.5267 7.476 11.732C7.476 11.8627 7.42 12.0307 7.308 12.236C7.084 12.6093 6.79467 13.0573 6.44 13.58C6.08533 14.1027 5.684 14.616 5.236 15.12C4.788 15.624 4.284 16.044 3.724 16.38C3.18267 16.716 2.59467 16.884 1.96 16.884ZM6.16 2.408C5.74933 2.856 5.31067 3.43467 4.844 4.144C4.396 4.85333 3.948 5.63733 3.5 6.496C3.052 7.35467 2.64133 8.22267 2.268 9.1C2.86533 8.55867 3.40667 8.10133 3.892 7.728C4.37733 7.336 4.86267 6.92533 5.348 6.496C5.77733 6.12267 6.23467 5.66533 6.72 5.124C7.224 4.564 7.69067 3.98533 8.12 3.388C8.54933 2.79067 8.848 2.24 9.016 1.736C9.072 1.53067 9.1 1.372 9.1 1.26C9.1 0.961334 8.95067 0.812 8.652 0.812C8.57733 0.812 8.49333 0.821334 8.4 0.84C8.32533 0.858667 8.24133 0.886667 8.148 0.924001C7.812 1.05467 7.476 1.24133 7.14 1.484C6.82267 1.72667 6.496 2.03467 6.16 2.408Z" fill="#141414"/>
</svg>
